<svg xmlns="http://www.w3.org/2000/svg" width="82.814" height="84.9" viewBox="0 0 82.814 84.9">
  <path id="ic_location_city_24px" d="M58.21,42.216V15.405L44.407,2,30.6,15.405v8.937H3V86.9H85.814V42.216ZM21.4,77.963H12.2V69.027h9.2Zm0-17.874H12.2V51.153h9.2Zm0-17.874H12.2V33.279h9.2Zm27.6,35.748h-9.2V69.027h9.2Zm0-17.874h-9.2V51.153h9.2Zm0-17.874h-9.2V33.279h9.2Zm0-17.874h-9.2V15.405h9.2Zm27.6,53.621h-9.2V69.027h9.2Zm0-17.874h-9.2V51.153h9.2Z" transform="translate(-3 -2)" fill="#6347f9"/>
</svg>
