<svg xmlns="http://www.w3.org/2000/svg" width="70.969" height="70.046" viewBox="0 0 70.969 70.046">
  <path id="ic_shopping_basket_24px" d="M53.291,27.78,39.162,3.57a3.092,3.092,0,0,0-2.677-1.55,3.054,3.054,0,0,0-2.677,1.587L19.678,27.78H4.226a3.748,3.748,0,0,0-3.1,4.687L9.323,66.678a6.62,6.62,0,0,0,6.194,5.388H57.452a6.682,6.682,0,0,0,6.226-5.388l8.194-34.211.1-1a3.492,3.492,0,0,0-3.226-3.691Zm-26.484,0,9.678-16.238L46.162,27.78ZM36.484,57.3c-3.548,0-6.452-3.321-6.452-7.381s2.9-7.381,6.452-7.381,6.452,3.321,6.452,7.381S40.033,57.3,36.484,57.3Z" transform="translate(-1 -2.02)" fill="#6347f9"/>
</svg>
