<?xml version="1.0" standalone="no"?>
<!DOCTYPE svg PUBLIC "-//W3C//DTD SVG 20010904//EN"
 "http://www.w3.org/TR/2001/REC-SVG-20010904/DTD/svg10.dtd">
<svg version="1.0" xmlns="http://www.w3.org/2000/svg"
 width="1280.000000pt" height="668.000000pt" viewBox="0 0 1280.000000 668.000000"
 preserveAspectRatio="xMidYMid meet">
<metadata>
Created by potrace 1.15, written by Peter Selinger 2001-2017
</metadata>
<g transform="translate(0.000000,668.000000) scale(0.100000,-0.100000)"
fill="#9e9e9e" stroke="none">
<path d="M10255 6640 c-4 -6 6 -139 21 -295 l27 -284 -53 -118 c-173 -385
-329 -667 -643 -1168 -707 -1127 -801 -1259 -1144 -1615 -98 -102 -120 -130
-106 -134 24 -7 -177 2 -302 14 -55 5 -156 14 -225 20 -69 6 -172 15 -230 20
-58 5 -161 14 -230 20 -248 22 -357 31 -460 40 -58 6 -685 60 -1395 121
l-1290 112 -130 63 c-188 92 -195 97 -195 139 0 19 29 113 64 207 81 221 101
285 121 380 22 111 20 135 -13 168 -37 36 -88 50 -188 50 l-81 0 -163 -215
c-89 -119 -166 -214 -171 -213 -4 2 -360 329 -790 728 -429 399 -806 746 -836
773 l-55 47 -184 0 c-101 0 -184 -3 -184 -7 0 -5 284 -480 630 -1058 l630
-1050 -53 -7 c-184 -27 -233 -44 -244 -87 -16 -58 5 -92 94 -151 l73 -49 -578
-190 c-317 -104 -752 -247 -966 -317 -271 -89 -383 -130 -370 -135 11 -4 56
-14 100 -23 l80 -16 359 70 c492 97 1058 225 1370 310 187 51 284 73 345 77
l85 6 174 -87 c95 -48 239 -117 319 -153 283 -127 1231 -501 1512 -598 222
-76 549 -151 695 -160 39 -2 225 -20 415 -39 190 -19 411 -41 492 -48 82 -7
142 -15 135 -19 -18 -10 -2223 -716 -2757 -883 -657 -205 -1208 -347 -2230
-577 -74 -17 -327 -70 -561 -119 l-426 -89 -184 45 c-101 24 -256 62 -344 83
-158 39 -221 48 -108 16 102 -29 462 -135 648 -191 l180 -55 920 142 920 141
795 173 c1274 279 2052 458 2339 541 l265 75 80 -30 c128 -47 277 -91 312 -91
17 0 57 9 89 20 32 11 60 20 61 20 2 0 -6 -20 -18 -44 -20 -42 -24 -45 -82
-56 -34 -7 -64 -14 -68 -16 -4 -3 17 -26 46 -52 l53 -47 1 -78 c3 -165 93
-267 302 -342 271 -96 618 -154 905 -151 91 1 105 4 154 31 178 98 284 378
226 595 -50 190 -162 292 -325 296 -41 1 -104 9 -138 18 -35 9 -119 21 -185
27 -67 6 -132 15 -144 21 -22 11 -41 9 -161 -13 -67 -12 -87 -11 -230 10 -86
12 -186 28 -221 34 l-65 12 205 43 c819 173 1023 212 1357 256 363 49 407 52
542 36 47 -5 204 -21 350 -35 357 -35 767 -80 980 -110 96 -13 229 -28 295
-34 66 -6 179 -16 250 -23 72 -6 254 -12 405 -12 243 0 299 3 480 27 310 41
422 63 581 113 236 74 438 216 463 326 15 64 -57 191 -166 293 -146 137 -265
220 -493 344 -239 131 -455 214 -653 252 -106 21 -113 24 -107 43 32 110 45
180 45 244 0 179 -80 336 -203 399 -38 19 -75 28 -147 34 -52 4 -121 15 -154
23 -32 9 -112 19 -177 23 -65 3 -119 10 -119 15 0 11 -82 6 -185 -11 -58 -10
-88 -9 -176 5 -58 9 -112 20 -119 24 -11 7 -2 41 43 162 153 417 270 811 456
1533 95 368 173 672 182 708 6 21 16 37 24 37 22 0 19 12 -22 72 -21 30 -125
181 -231 336 -106 154 -197 284 -202 287 -5 3 -12 1 -15 -5z"/>
</g>
</svg>
